<svg width="62" height="62" viewBox="0 0 62 62" fill="none" xmlns="http://www.w3.org/2000/svg">
<path d="M43.9998 46V50H42.8058C41.2228 50 39.6688 49.455 38.4328 48.466L35.7628 46.33C40.0358 44.77 42.9998 40.66 42.9998 36C42.9998 29.935 38.0648 25 31.9998 25C25.9348 25 20.9998 29.935 20.9998 36C20.9998 38.979 22.1708 41.768 24.2968 43.852L24.2978 43.853C24.3508 43.905 24.4138 43.948 24.4688 44L24.3718 44.389C24.0648 45.616 24.5658 46.91 25.6188 47.614L28.1008 49.268C28.1618 49.308 28.2138 49.357 28.2708 49.401L26.0418 49.958C25.8998 49.994 25.7558 50.019 25.6118 50.033L20.3968 50.554L18.1328 46.026C17.8998 45.56 17.5478 45.162 17.1128 44.871L16.9168 44.741C16.1068 44.201 15.0798 44.087 14.1708 44.438C13.2618 44.79 12.5778 45.564 12.3418 46.509L12.2898 46.874C11.7238 46.312 10.9708 46 10.1708 46H9.44077C8.14777 46 7.00377 46.824 6.59377 48.052L6.44177 48.511C6.07977 49.596 6.35777 50.772 7.16677 51.581L10.6238 55.038C11.8268 56.24 13.3128 57.159 14.9238 57.694L20.1448 59.435C21.2668 59.811 22.4368 60 23.6228 60H39.7688C40.6658 60 41.5638 59.89 42.4368 59.671L43.9998 59.28V62H61.9998V46H43.9998ZM31.9998 27C36.9618 27 40.9998 31.038 40.9998 36C40.9998 40.244 37.9988 43.936 33.8578 44.805L31.6008 43H32.9998V42H34.9998C36.6538 42 37.9998 40.654 37.9998 39V38C37.9998 36.346 36.6538 35 34.9998 35H28.9998C28.4478 35 27.9998 34.552 27.9998 34V33C27.9998 32.448 28.4488 32 28.9998 32H34.9998C35.5518 32 35.9998 32.448 35.9998 33H37.9998C37.9998 31.346 36.6538 30 34.9998 30H32.9998V29H30.9998V30H28.9998C27.3458 30 25.9998 31.346 25.9998 33V34C25.9998 35.654 27.3458 37 28.9998 37H34.9998C35.5518 37 35.9998 37.448 35.9998 38V39C35.9998 39.552 35.5508 40 34.9998 40H28.9998C28.4478 40 27.9998 39.552 27.9998 39H25.9998C25.9998 40.009 26.5048 40.899 27.2708 41.443C26.7958 41.472 26.3308 41.601 25.9118 41.853C25.7528 41.948 25.6078 42.06 25.4718 42.179C23.8808 40.503 22.9998 38.325 22.9998 36C22.9998 31.038 27.0378 27 31.9998 27ZM30.9648 42.491C30.6868 42.269 30.3618 42.111 30.0238 42H30.9998V42.519L30.9648 42.491ZM14.2928 46.952C14.3808 46.653 14.5968 46.419 14.8908 46.306C15.1988 46.187 15.5328 46.224 15.8078 46.408L16.0028 46.538C16.1478 46.635 16.2648 46.767 16.3428 46.923L18.2658 50.77L17.7868 50.818C16.8828 50.906 16.0048 50.592 15.3668 49.954L14.0588 48.647L14.2928 46.952ZM41.9518 57.731C41.2368 57.909 40.5028 58 39.7688 58H23.6228C22.6528 58 21.6958 57.845 20.7768 57.539L15.5558 55.797C14.2378 55.359 13.0218 54.608 12.0378 53.624L8.58177 50.167C8.31177 49.897 8.21977 49.505 8.34077 49.143L8.49277 48.684C8.62877 48.274 9.00977 48 9.44077 48H10.1708C10.4378 48 10.6898 48.104 10.8788 48.293L13.9518 51.366C15.0168 52.431 16.4918 52.956 17.9858 52.806L25.8108 52.024C26.0518 52 26.2898 51.958 26.5248 51.899L29.3738 51.187C29.4578 51.611 29.4548 52.056 29.3458 52.492L29.0298 53.758L30.9698 54.242L31.2858 52.976C31.7968 50.932 30.9618 48.773 29.2088 47.604L26.7278 45.95C26.3768 45.716 26.2088 45.284 26.3118 44.876L26.4848 44.183C26.5488 43.924 26.7118 43.705 26.9408 43.568C27.1698 43.431 27.4368 43.393 27.6978 43.456L29.3358 43.866C29.4738 43.9 29.6058 43.966 29.7168 44.054L37.1848 50.029C38.7728 51.3 40.7698 52 42.8058 52H43.9998V57.22L41.9518 57.731ZM59.9998 60H45.9998V48H55.9998V52H57.9998V48H59.9998V60Z" fill="#FF9533"/>
<path d="M52 50C49.794 50 48 51.794 48 54C48 56.206 49.794 58 52 58C54.206 58 56 56.206 56 54C56 51.794 54.206 50 52 50ZM52 56C50.897 56 50 55.103 50 54C50 52.897 50.897 52 52 52C53.103 52 54 52.897 54 54C54 55.103 53.103 56 52 56Z" fill="#FF9533"/>
<path d="M58 54H56V56H58V54Z" fill="#FF9533"/>
<path d="M22 23C22 16.935 17.065 12 11 12C4.935 12 0 16.935 0 23C0 29.065 4.935 34 11 34C17.065 34 22 29.065 22 23ZM2 23C2 18.038 6.038 14 11 14C15.962 14 20 18.038 20 23C20 27.962 15.962 32 11 32C6.038 32 2 27.962 2 23Z" fill="#FF9533"/>
<path d="M12 30V29H14C15.654 29 17 27.654 17 26V25C17 23.346 15.654 22 14 22H8C7.448 22 7 21.551 7 21V20C7 19.448 7.449 19 8 19H14C14.552 19 15 19.449 15 20H17C17 18.346 15.654 17 14 17H12V16H10V17H8C6.346 17 5 18.346 5 20V21C5 22.654 6.346 24 8 24H14C14.552 24 15 24.449 15 25V26C15 26.552 14.551 27 14 27H8C7.448 27 7 26.551 7 26H5C5 27.654 6.346 29 8 29H10V30H12Z" fill="#FF9533"/>
<path d="M37 0H35V6H37V0Z" fill="#FF9533"/>
<path d="M37 8H35V12H37V8Z" fill="#FF9533"/>
<path d="M37 14H35V24H37V14Z" fill="#FF9533"/>
<path d="M33 0H31V2H33V0Z" fill="#FF9533"/>
<path d="M33 10H31V23H33V10Z" fill="#FF9533"/>
<path d="M33 4H31V8H33V4Z" fill="#FF9533"/>
<path d="M29 6H27V10H29V6Z" fill="#FF9533"/>
<path d="M29 12H27V24H29V12Z" fill="#FF9533"/>
<path d="M17 0H15V4H17V0Z" fill="#FF9533"/>
<path d="M17 6H15V11H17V6Z" fill="#FF9533"/>
<path d="M13 0H11V2H13V0Z" fill="#FF9533"/>
<path d="M13 4H11V10H13V4Z" fill="#FF9533"/>
<path d="M9 4H7V10H9V4Z" fill="#FF9533"/>
</svg>
