<svg width="62" height="62" viewBox="0 0 62 62" fill="none" xmlns="http://www.w3.org/2000/svg">
<path d="M36 23C36 29.065 40.935 34 47 34C53.065 34 58 29.065 58 23C58 16.935 53.065 12 47 12C40.935 12 36 16.935 36 23ZM56 23C56 27.962 51.962 32 47 32C42.038 32 38 27.962 38 23C38 18.038 42.038 14 47 14C51.962 14 56 18.038 56 23Z" fill="#FF9533"/>
<path d="M54.714 36.739C54.413 36.589 54.099 36.469 53.779 36.363C58.649 33.882 62 28.83 62 23C62 17.257 58.752 12.263 54 9.744V3C54 1.346 52.654 0 51 0H3C1.346 0 0 1.346 0 3V47C0 48.654 1.346 50 3 50H38.184C38.072 50.314 38 50.648 38 51C38 52.654 39.346 54 41 54H42V57C42 59.757 44.243 62 47 62C49.757 62 52 59.757 52 57V53.976C52.941 53.919 53.872 53.683 54.714 53.262L57.236 52H62V38H57.236L54.714 36.739ZM60 23C60 30.168 54.168 36 47 36C39.832 36 34 30.168 34 23C34 15.832 39.832 10 47 10C54.168 10 60 15.832 60 23ZM45.963 46.827C45.973 46.886 46 46.94 46 47C46 47.551 45.551 48 45 48H41C40.449 48 40 47.551 40 47C40 46.449 40.449 46 41 46H42.78C43.329 46.609 44.117 47 45 47C45.339 47 45.659 46.931 45.963 46.827ZM42 44H41C40.449 44 40 43.551 40 43C40 42.449 40.449 42 41 42H42V44ZM42 39V40H41C40.449 40 40 39.551 40 39C40 38.449 40.449 38 41 38H42.184C42.072 38.314 42 38.648 42 39ZM3 2H51C51.551 2 52 2.449 52 3V8.875C50.433 8.319 48.755 8 47 8H2V3C2 2.449 2.449 2 3 2ZM2 47V10H39.549C35.046 12.591 32 17.442 32 23C32 28.707 35.205 33.678 39.909 36.213C38.794 36.651 38 37.731 38 39C38 39.771 38.301 40.468 38.78 41C38.3 41.532 38 42.229 38 43C38 43.771 38.301 44.468 38.78 45C38.3 45.532 38 46.229 38 47C38 47.352 38.072 47.686 38.184 48H3C2.449 48 2 47.551 2 47ZM40 51C40 50.449 40.449 50 41 50H45C45.551 50 46 50.449 46 51C46 51.551 45.551 52 45 52H41C40.449 52 40 51.551 40 51ZM47 60C45.346 60 44 58.654 44 57V54H45C46.654 54 48 52.654 48 51C48 50.229 47.699 49.532 47.22 49C47.7 48.468 48 47.771 48 47C48 46.466 47.843 45.956 47.581 45.503C47.84 45.06 48 44.55 48 44V42H50V57C50 58.654 48.654 60 47 60ZM60 50H56.764L53.821 51.472C53.254 51.755 52.632 51.922 52.001 51.975V43.422C52.67 43.793 53.433 44 54.236 44H56V42H54.236C53.238 42 52.341 41.445 51.895 40.553L51.618 40H46V44C46 44.551 45.551 45 45 45C44.449 45 44 44.551 44 44V39C44 38.449 44.449 38 45 38H51.583C52.355 38 53.128 38.183 53.819 38.528L56.764 40H60V50Z" fill="#FF9533"/>
<path d="M42.707 24.293L41.293 25.707L44 28.414L52.707 19.707L51.293 18.293L44 25.586L42.707 24.293Z" fill="#FF9533"/>
<path d="M6 4H4V6H6V4Z" fill="#FF9533"/>
<path d="M14 4H12V6H14V4Z" fill="#FF9533"/>
<path d="M10 4H8V6H10V4Z" fill="#FF9533"/>
<path d="M4 22H14V12H4V22ZM6 14H12V20H6V14Z" fill="#FF9533"/>
<path d="M30 12H16V14H30V12Z" fill="#FF9533"/>
<path d="M26 16H16V18H26V16Z" fill="#FF9533"/>
<path d="M30 16H28V18H30V16Z" fill="#FF9533"/>
<path d="M30 20H16V22H30V20Z" fill="#FF9533"/>
<path d="M4 34H14V24H4V34ZM6 26H12V32H6V26Z" fill="#FF9533"/>
<path d="M30 24H16V26H30V24Z" fill="#FF9533"/>
<path d="M26 28H16V30H26V28Z" fill="#FF9533"/>
<path d="M30 28H28V30H30V28Z" fill="#FF9533"/>
<path d="M30 32H16V34H30V32Z" fill="#FF9533"/>
<path d="M4 46H14V36H4V46ZM6 38H12V44H6V38Z" fill="#FF9533"/>
<path d="M30 36H20V38H30V36Z" fill="#FF9533"/>
<path d="M18 36H16V38H18V36Z" fill="#FF9533"/>
<path d="M30 40H20V42H30V40Z" fill="#FF9533"/>
<path d="M18 40H16V42H18V40Z" fill="#FF9533"/>
<path d="M30 44H20V46H30V44Z" fill="#FF9533"/>
<path d="M18 44H16V46H18V44Z" fill="#FF9533"/>
</svg>
