<svg width="62" height="63" viewBox="0 0 62 63" fill="none" xmlns="http://www.w3.org/2000/svg">
<path d="M53 8.99996H46V0.999962H1.026L0.026 0.985962C0.00900002 2.31196 0 15.87 0 16V49C0 52.309 2.243 55 5 55H16V63H62V18C62 13.038 57.963 8.99996 53 8.99996ZM2 49V16C2 15.895 2.006 7.11596 2.017 2.99996H44V8.99996H13C10.243 8.99996 8 11.243 8 14V18V47V49C8 51.206 6.654 53 5 53C3.346 53 2 51.206 2 49ZM16 14V53H8.716C9.511 51.937 10 50.538 10 49V47V18V14C10 12.346 11.346 11 13 11C14.654 11 16 12.346 16 14ZM60 61H18V55V54V14C18 12.87 17.609 11.838 16.974 11H53C56.859 11 60 14.14 60 18V61Z" fill="#35B984"/>
<path d="M40 41H56V25H40V41ZM42 27H54V39H42V27Z" fill="#35B984"/>
<path d="M22 41H38V25H22V41ZM24 27H36V39H24V27Z" fill="#35B984"/>
<path d="M40 59H56V43H40V59ZM42 45H54V57H42V45Z" fill="#35B984"/>
<path d="M52 32H44V34H52V32Z" fill="#35B984"/>
<path d="M52 50H44V52H52V50Z" fill="#35B984"/>
<path d="M52.9999 13H29.7009L19.7769 18L29.7009 23H52.9999C55.7569 23 57.9999 20.757 57.9999 18C57.9999 15.243 55.7569 13 52.9999 13ZM46.9999 17H30.9999V15H46.9999V17ZM30.9999 19H46.9999V21H30.9999V19ZM48.9999 15H50.9999V21H48.9999V15ZM28.9999 15.593V20.408L24.2229 18L28.9999 15.593ZM52.9999 21V15C54.6539 15 55.9999 16.346 55.9999 18C55.9999 19.654 54.6539 21 52.9999 21Z" fill="#35B984"/>
<path d="M31 29H29V32H26V34H29V37H31V34H34V32H31V29Z" fill="#35B984"/>
<path d="M22 59H38V43H22V59ZM24 45H36V57H24V45Z" fill="#35B984"/>
<path d="M32.1208 47.465L29.9998 49.586L27.8788 47.465L26.4648 48.879L28.5858 51L26.4648 53.121L27.8788 54.535L29.9998 52.414L32.1208 54.535L33.5348 53.121L31.4138 51L33.5348 48.879L32.1208 47.465Z" fill="#35B984"/>
<path d="M49 53H47V55H49V53Z" fill="#35B984"/>
<path d="M49 47H47V49H49V47Z" fill="#35B984"/>
</svg>
