<svg width="62" height="62" viewBox="0 0 62 62" fill="none" xmlns="http://www.w3.org/2000/svg">
<path d="M45 28C38.933 28 33.613 31.205 30.604 36H0V46H6V52H0V62H34V61V60V57.938C36.968 60.465 40.805 62 45 62C54.374 62 62 54.374 62 45C62 35.626 54.374 28 45 28ZM24 58V60H22V54H24V56H26V54H28V60H26V58H24ZM6 38H8V40H10V38H12V44H10V42H8V44H6V38ZM22 46V52H20V46H22ZM18 46V52H16V46H18ZM24 52V46H26V52H24ZM22 44V38H24V44H22ZM20 44H18V38H20V44ZM16 44H14V38H16V44ZM14 46V52H12V46H14ZM10 54H12V60H10V54ZM8 60H6V54H8V60ZM14 54H16V60H14V54ZM18 54H20V60H18V54ZM28 52V46H28.051C28.176 48.129 28.686 50.151 29.526 52H28ZM28.051 44H26V38H29.526C28.686 39.849 28.175 41.871 28.051 44ZM2 38H4V44H2V38ZM8 46H10V52H8V46ZM2 54H4V60H2V54ZM30 60V54H30.604C31.044 54.702 31.527 55.372 32.062 56H32V60H30ZM45 60C36.729 60 30 53.271 30 45C30 36.729 36.729 30 45 30C53.271 30 60 36.729 60 45C60 53.271 53.271 60 45 60Z" fill="#35B984"/>
<path d="M16.729 15.384L19.129 16.978C20.137 17.646 21.292 18 22.473 18H23.682C25.141 18 26.394 17.08 27 15.757V18H32V20V21V28H36C37.654 28 39 26.654 39 24.961C39 24.656 39.137 24.371 39.376 24.18L43.351 21H52.037L60.598 16.356C61.463 15.887 62 14.984 62 14C62 13.016 61.463 12.113 60.598 11.644L52.037 7H43.351L39.376 3.82C39.137 3.629 39 3.344 39 3C39 1.346 37.654 0 36 0H32V7V8V10H27V12.243C26.394 10.92 25.141 10 23.682 10H22.473C21.292 10 20.137 10.354 19.13 11.022L16.73 12.616C16.272 12.918 16 13.436 16 14C16 14.564 16.272 15.082 16.729 15.384ZM38.126 22.619C37.41 23.191 37 24.045 37 25C37 25.551 36.552 26 36 26H34V21H40.149L38.126 22.619ZM59.645 13.402C59.863 13.521 60 13.75 60 14C60 14.25 59.863 14.479 59.645 14.598L51.529 19H34V9H51.529L59.645 13.402ZM34 2H36C36.552 2 37 2.449 37 3.039C37 3.955 37.41 4.809 38.126 5.382L40.149 7H34V2ZM29 12H32V16H29V12ZM20.235 12.688C20.914 12.238 21.688 12 22.473 12H23.682C24.626 12 25.394 12.897 25.394 14C25.394 15.103 24.626 16 23.682 16H22.473C21.688 16 20.914 15.762 20.236 15.312L18.26 14L20.235 12.688Z" fill="#35B984"/>
<path d="M18 32H16V34H18V32Z" fill="#35B984"/>
<path d="M7 27H13C14.654 27 16 28.346 16 30H18C18 27.243 15.757 25 13 25H7C4.243 25 2 22.757 2 20C2 17.243 4.243 15 7 15H14V13H7C3.141 13 0 16.14 0 20C0 23.86 3.141 27 7 27Z" fill="#35B984"/>
<path d="M46 18C48.206 18 50 16.206 50 14C50 11.794 48.206 10 46 10C43.794 10 42 11.794 42 14C42 16.206 43.794 18 46 18ZM46 12C47.103 12 48 12.897 48 14C48 15.103 47.103 16 46 16C44.897 16 44 15.103 44 14C44 12.897 44.897 12 46 12Z" fill="#35B984"/>
<path d="M46 34V32H44V34C40.691 34 38 36.691 38 40C38 43.309 40.691 46 44 46H46C48.206 46 50 47.794 50 50C50 52.206 48.206 54 46 54H44C41.794 54 40 52.206 40 50V49H38V50C38 53.309 40.691 56 44 56V58H46V56C49.309 56 52 53.309 52 50C52 46.691 49.309 44 46 44H44C41.794 44 40 42.206 40 40C40 37.794 41.794 36 44 36H46C48.206 36 50 37.794 50 40V41H52V40C52 36.691 49.309 34 46 34Z" fill="#35B984"/>
<path d="M56 44H54V46H56V44Z" fill="#35B984"/>
<path d="M36 44H34V46H36V44Z" fill="#35B984"/>
</svg>
