<svg width="62" height="62" viewBox="0 0 62 62" fill="none" xmlns="http://www.w3.org/2000/svg">
<path d="M31 50C31 44.486 26.514 40 21 40C15.486 40 11 44.486 11 50C11 55.514 15.486 60 21 60C26.514 60 31 55.514 31 50ZM21 58C16.589 58 13 54.411 13 50C13 45.589 16.589 42 21 42C25.411 42 29 45.589 29 50C29 54.411 25.411 58 21 58Z" fill="#35B984"/>
<path d="M38 42H36V44H38V42Z" fill="#35B984"/>
<path d="M6 42H4V44H6V42Z" fill="#35B984"/>
<path d="M6 56H4V58H6V56Z" fill="#35B984"/>
<path d="M38 56H36V58H38V56Z" fill="#35B984"/>
<path d="M20 0V14.685L12 3.256L3.079 16H7V38H0V62H33H42H62V0H20ZM20 38H17V16H20V38ZM6.92 14L12 6.744L17.08 14H15V38H9V14H6.92ZM33 60H21H2V40H21H40V60H33ZM60 60H42V38H26V34H46V38H58V8H24V24V26V28V30V32V34V38H22V2H60V60ZM48 34H56V36H48V34ZM48 32V30H56V32H48ZM48 28V26H56V28H48ZM48 24V22H56V24H48ZM56 20H48V18H56V20ZM56 16H48V14H56V16ZM56 12H48V10H56V12ZM46 12H26V10H46V12ZM26 14H46V16H26V14ZM26 18H46V20H26V18ZM26 22H46V24H26V22ZM46 26V28H26V26H46ZM46 30V32H26V30H46Z" fill="#35B984"/>
<path d="M58 4H47V6H58V4Z" fill="#35B984"/>
<path d="M45 4H24V6H45V4Z" fill="#35B984"/>
<path d="M58 44H44V46H58V44Z" fill="#35B984"/>
<path d="M58 48H56V50H58V48Z" fill="#35B984"/>
<path d="M54 48H44V50H54V48Z" fill="#35B984"/>
</svg>
